# xmcd
#
# Track frame offsets: 
#        150
#        12120
#        22110
#        31320
#        40525
#        52533
#        62658
#        73513
#        84333
#        97775
#
# Disc length: 1471 seconds
#
# Revision: 5
# Processed by: cddbd v1.5.2PL0 Copyright (c) Steve Scherf et al.
# Submitted via: ExactAudioCopy v1.3
#
DISCID=6505bd0a
DTITLE=Various Artist - Billboard Top Country Hits 1963
DYEAR=1990
DGENRE=Country
TTITLE0=Johnny Cash - Ring Of Fire
TTITLE1=Ned Miller - From A Jack To A King
TTITLE2=Buck Owens - Love's Gonna Live Here
TTITLE3=Marty Robbins - Ruby Ann
TTITLE4=Skeeter Davis - The End Of The World
TTITLE5=George Hamilton IV - Abilene
TTITLE6=Dave Dudley - Six Days On The Road
TTITLE7=Buck Owens - Act Naturally
TTITLE8=Carl Butler - Don't Let Me Cross Over
TTITLE9=Bill Anderson - Still
EXTD=
EXTT0=Johnny Cash
EXTT1=Ned Miller
EXTT2=Buck Owens
EXTT3=Marty Robbins
EXTT4=Skeeter Davis
EXTT5=George Hamilton IV
EXTT6=Dave Dudley
EXTT7=Buck Owens
EXTT8=Carl Butler
EXTT9=Bill Anderson
PLAYORDER=
